<svg xmlns="http://www.w3.org/2000/svg" width="1100" height="1100" viewBox="0 0 11000 11000"><g id="l4uFM11rHpruvDQz7qONXRa" fill="rgb(58,151,204)" style="transform: none;"><g><path id="puFk49qhx" d="M5337 10374 c-123 -27 -233 -81 -329 -161 -24 -19 -311 -301 -638 -626 -520 -518 -1015 -1003 -1615 -1586 -93 -91 -271 -264 -395 -386 -124 -121 -310 -304 -415 -405 -104 -101 -329 -322 -500 -490 -171 -168 -424 -418 -564 -555 l-254 -250 -32 -50 c-18 -27 -44 -79 -58 -115 l-25 -65 -11 -59 -11 -60 0 -82 0 -83 15 -73 15 -73 46 -94 47 -95 111 -111 c61 -62 295 -291 521 -511 225 -219 587 -574 805 -789 l395 -390 65 -49 65 -49 61 -28 61 -28 84 -21 84 -22 130 5 130 5 70 22 70 22 80 41 80 41 90 91 c50 49 221 223 382 385 160 162 413 416 562 564 l271 268 -82 78 c-46 43 -190 185 -321 315 l-239 237 -366 -365 -367 -364 -85 -41 -85 -41 -70 -17 -70 -16 -105 5 -105 5 -65 21 -65 20 -65 38 -65 38 -356 355 -357 355 -41 85 -41 85 -12 82 -12 83 11 87 11 88 27 68 27 67 38 58 c47 73 46 72 605 612 858 831 1204 1168 1931 1886 l720 711 85 42 84 41 75 16 75 16 106 -5 107 -5 71 -25 71 -25 53 -33 52 -33 259 -255 258 -256 43 -65 42 -65 22 -58 21 -57 11 -70 11 -70 -12 -90 -11 -91 -24 -64 -24 -64 -37 -58 -37 -58 -99 -102 -100 -102 313 -320 c173 -177 318 -321 323 -321 14 0 68 51 435 409 l344 336 37 51 c49 65 92 152 120 239 l22 70 5 106 6 106 -17 77 -18 77 -45 92 -46 92 -729 730 c-401 402 -791 788 -866 858 l-137 128 -65 40 -65 39 -95 31 -95 32 -125 3 -125 4 -68 -16z"></path><path id="pbnPqzQpY" d="M5150 7265 l-425 -425 35 0 36 0 47 48 47 48 0 17 0 17 18 0 17 0 163 163 162 162 0 18 0 17 18 0 17 0 155 155 155 155 450 -450 450 -450 35 0 35 0 -475 475 -475 475 -20 0 -20 0 -425 -425z"></path><path id="pb50azMuT" d="M4425 6548 l-170 -168 35 0 35 0 138 138 139 139 -4 29 -3 29 -170 -167z"></path><path id="p18JK6uhJr" d="M6810 6450 l0 -36 129 -127 128 -127 12 0 11 0 0 -11 c0 -5 13 -24 28 -40 l28 -31 32 4 32 3 -200 200 -200 200 0 -35z"></path><path id="pZKbVYMFz" d="M3873 6006 l-53 -57 -11 -39 -12 -38 21 -34 c11 -18 37 -49 56 -67 l36 -35 0 35 0 36 -23 21 c-13 12 -29 22 -36 22 l-13 0 7 28 c3 15 9 42 12 60 l5 32 23 0 23 0 11 14 12 15 -3 32 -3 33 -52 -58z"></path><path id="pQNHZbUxB" d="M7290 5969 l0 -35 74 -73 75 -72 31 3 31 3 -106 105 -105 105 0 -36z"></path><path id="pW7VBO96q" d="M4040 5605 l125 -126 3 32 3 32 -93 94 -93 93 -35 0 -35 0 125 -125z"></path><path id="p1FF3wnAmK" d="M7720 5549 l0 -35 123 -121 c67 -67 128 -131 135 -142 l12 -21 -6 -55 -7 -55 11 0 11 0 16 30 15 29 0 39 0 39 -29 39 c-16 21 -86 95 -155 164 l-126 125 0 -36z"></path><path id="pEU7sdzZC" d="M4380 5265 l125 -126 3 32 3 32 -93 94 -93 93 -35 0 -35 0 125 -125z"></path><path id="ptV8ZPWJ4" d="M7586 4771 l-17 -19 3 -32 3 -31 50 50 49 51 -35 0 -36 0 -17 -19z"></path><path id="p10W9ZOhlx" d="M5040 4605 l75 -76 3 32 3 32 -42 43 -43 44 -35 0 -35 0 74 -75z"></path><path id="pAeiAQ978" d="M7307 4492 l-88 -89 3 -32 3 -32 120 121 120 120 -35 0 -35 0 -88 -88z"></path><path id="pu6V8luWV" d="M5265 4380 l80 -81 3 32 3 32 -47 48 -48 49 -35 0 -36 0 80 -80z"></path><path id="pFVJnr9E2" d="M5485 4160 l110 -111 3 32 3 32 -78 79 -78 78 -35 0 -35 0 110 -110z"></path><path id="pQIchtkP2" d="M6782 3977 l-73 -74 3 -32 3 -32 105 106 105 105 -35 0 -36 0 -72 -73z"></path><path id="pLQKtE8v4" d="M5915 3730 l200 -200 3 31 4 32 -169 169 -168 168 -35 0 -35 0 200 -200z"></path><path id="pIVQMzV9T" d="M6546 3751 l-27 -29 3 -31 3 -32 60 61 59 60 -35 0 -35 0 -28 -29z"></path><path id="pVu3PjxkF" d="M6341 3556 l-93 -93 4 -29 3 -29 125 122 125 123 -35 0 -35 0 -94 -94z"></path></g></g><g id="l1EX7fuC9ZT45d67ChlHvad" fill="rgb(119,214,244)" style="transform: none;"><g><path id="p17X09UaO6" d="M5820 10316 l0 -13 25 -11 c30 -14 45 -15 45 -4 0 5 -16 16 -35 25 l-35 17 0 -14z"></path><path id="pShTjI6a0" d="M4530 9743 l-445 -448 448 445 c415 414 451 450 444 450 -1 0 -202 -201 -447 -447z"></path><path id="p1Bu6v4Hao" d="M6360 9865 c52 -52 97 -95 100 -95 2 0 -38 43 -90 95 -52 52 -97 95 -100 95 -2 0 38 -43 90 -95z"></path><path id="p5pAkBvp0" d="M5498 9163 c12 -2 32 -2 45 0 l22 4 -45 0 -45 0 23 -4z"></path><path id="pV5HhmeI6" d="M3675 8898 l-100 -103 103 100 c95 93 107 105 99 105 -1 0 -47 -46 -102 -102z"></path><path id="p06EzwECF" d="M4900 8833 l-165 -168 168 165 c155 153 172 170 164 170 -1 0 -76 -75 -167 -167z"></path><path id="p1GEYxgsda" d="M6190 8755 c124 -124 227 -225 230 -225 3 0 -96 101 -220 225 -124 124 -227 225 -230 225 -3 0 96 -101 220 -225z"></path><path id="pPOZouzcN" d="M3305 8538 l-80 -83 83 80 c76 74 87 85 79 85 -1 0 -38 -37 -82 -82z"></path><path id="pdd14fPBi" d="M4475 8410 c-115 -115 -208 -210 -205 -210 3 0 100 95 215 210 115 116 208 210 205 210 -3 0 -100 -94 -215 -210z"></path><path id="prAqc9lXV" d="M2855 8098 l-80 -83 83 80 c76 74 87 85 79 85 -1 0 -38 -37 -82 -82z"></path><path id="pSoG1oMM9" d="M6562 8060 l0 -35 5 18 c2 9 2 25 0 35 l-5 17 0 -35z"></path><path id="pA69AZf2Z" d="M3810 7753 l-145 -148 148 145 c137 134 152 150 144 150 -1 0 -67 -66 -147 -147z"></path><path id="pX5lvhklU" d="M2490 7743 l-105 -108 108 105 c99 97 112 110 104 110 -1 0 -50 -48 -107 -107z"></path><path id="pLHcCvPr3" d="M6300 7585 c-41 -41 -72 -75 -69 -75 2 0 38 34 79 75 41 41 72 75 69 75 -2 0 -38 -34 -79 -75z"></path><path id="pWkOLY9O0" d="M3540 7495 c-24 -25 -42 -45 -39 -45 3 0 25 20 49 45 24 25 42 45 39 45 -3 0 -25 -20 -49 -45z"></path><path id="p2l1QzEVE" d="M6290 7445 c30 -30 57 -55 59 -55 3 0 -19 25 -49 55 -30 30 -57 55 -59 55 -3 0 19 -25 49 -55z"></path><path id="pJXtPxD6" d="M7435 7418 l-50 -53 53 50 c48 46 57 55 49 55 -1 0 -25 -24 -52 -52z"></path><path id="pKF97FnqL" d="M3390 7345 c-41 -41 -72 -75 -69 -75 2 0 38 34 79 75 41 41 72 75 69 75 -2 0 -38 -34 -79 -75z"></path><path id="pMtK4m4hG" d="M2030 7293 l-85 -88 88 85 c81 79 92 90 84 90 -1 0 -41 -39 -87 -87z"></path><path id="pz6rA0yr6" d="M7095 7088 l-160 -163 163 160 c150 148 167 165 159 165 -1 0 -74 -73 -162 -162z"></path><path id="ptXfdyuHZ" d="M3065 7030 c-66 -66 -117 -120 -115 -120 3 0 59 54 125 120 66 66 117 120 115 120 -3 0 -59 -54 -125 -120z"></path><path id="pC8nd8Q34" d="M6755 6970 c55 -55 102 -100 105 -100 2 0 -40 45 -95 100 -55 55 -102 100 -105 100 -2 0 40 -45 95 -100z"></path><path id="piTXTNxAy" d="M1600 6873 l-165 -168 168 165 c155 153 172 170 164 170 -1 0 -76 -75 -167 -167z"></path><path id="paTIMIGrP" d="M8215 6876 c-85 -20 -139 -41 -215 -83 l-65 -36 -242 -242 -243 -242 0 -16 0 -15 33 -27 c17 -15 165 -159 327 -321 l296 -293 69 25 69 25 68 9 68 8 68 -8 67 -9 65 -20 65 -21 65 -42 65 -42 264 -260 264 -261 37 -56 37 -57 28 -83 29 -84 0 -120 -1 -120 -25 -71 -25 -71 -37 -55 c-50 -76 -61 -87 -836 -849 -377 -370 -876 -863 -1110 -1095 l-425 -421 -80 -47 -80 -47 -70 -22 -70 -22 -110 0 -110 0 -55 14 -55 13 -85 40 -85 40 -203 207 -202 206 -50 73 -50 73 -22 72 -23 72 1 120 1 120 25 67 c14 37 41 93 59 124 l34 56 88 93 c48 51 87 96 87 101 0 4 -37 46 -83 93 -45 47 -181 188 -301 314 l-219 227 -11 0 -11 0 -381 -383 -381 -382 -42 -85 -41 -85 -22 -80 -21 -80 1 -125 0 -125 21 -78 20 -78 38 -72 38 -72 166 -170 c208 -214 1302 -1302 1349 -1342 57 -49 155 -109 222 -136 l63 -25 105 -18 105 -17 95 11 c52 6 122 19 155 27 l60 16 72 35 73 35 62 51 c35 28 169 155 298 282 411 405 689 674 940 916 135 129 580 565 990 970 410 404 864 852 1010 994 l265 259 36 47 c39 51 70 113 102 200 l20 55 4 125 5 125 -17 65 -16 65 -41 85 -40 85 -272 270 c-149 149 -536 530 -861 848 l-590 577 -55 41 -55 40 -70 34 c-39 18 -98 41 -130 50 l-60 16 -120 5 -120 4 -60 -14z"></path><path id="pEzCQ6CeY" d="M6500 6763 l0 -28 123 -123 124 -124 29 4 29 3 -125 128 c-69 71 -137 138 -152 149 l-28 19 0 -28z"></path><path id="pew3U6bjN" d="M2695 6668 l-60 -63 63 60 c58 55 67 65 59 65 -1 0 -29 -28 -62 -62z"></path><path id="p1CZztaydV" d="M975 6258 l-160 -163 163 160 c150 148 167 165 159 165 -1 0 -74 -73 -162 -162z"></path><path id="pR7GHolk3" d="M2355 6338 l-70 -73 73 70 c39 38 72 71 72 72 0 8 -11 -2 -75 -69z"></path><path id="p9QTH6Ayc" d="M3972 6103 l-142 -141 0 -11 0 -11 23 0 23 0 12 12 12 12 0 18 0 18 18 0 17 0 94 94 93 93 -4 29 -4 29 -142 -142z"></path><path id="p3FMdES33" d="M2070 6065 c-41 -41 -72 -75 -69 -75 2 0 38 34 79 75 41 41 72 75 69 75 -2 0 -38 -34 -79 -75z"></path><path id="pu0xlIxha" d="M7600 5663 l0 -29 59 -58 58 -58 28 4 29 3 -58 63 c-32 34 -72 72 -87 83 l-29 20 0 -28z"></path><path id="puwdaQz1s" d="M7960 5300 l0 -30 15 0 15 0 0 -25 0 -25 14 0 14 0 5 20 5 19 -14 12 c-8 6 -14 17 -14 23 l0 11 -20 13 -20 12 0 -30z"></path><path id="p5ESb36xm" d="M7990 5191 l0 -19 -15 -6 -15 -5 0 -37 0 -37 21 19 c22 20 40 56 44 87 l2 17 -19 0 -18 0 0 -19z"></path><path id="p4wuK2FDF" d="M4509 5132 c11 -16 55 -62 98 -103 l78 -74 3 29 4 29 -73 73 -73 74 -29 0 -28 0 20 -28z"></path><path id="pHHrVQqRA" d="M725 4950 c49 -49 92 -90 95 -90 2 0 -36 41 -85 90 -49 50 -92 90 -95 90 -2 0 36 -40 85 -90z"></path><path id="pqYXWeNSz" d="M4390 4835 c47 -47 87 -85 90 -85 2 0 -33 38 -80 85 -47 47 -87 85 -90 85 -2 0 33 -38 80 -85z"></path><path id="pUuJ8DWwM" d="M4819 4822 c11 -16 51 -58 88 -93 l68 -63 3 28 4 29 -63 63 -63 64 -29 0 -28 0 20 -28z"></path><path id="p12GNwLQDj" d="M7627 4812 l-17 -19 0 -21 0 -22 -23 0 -23 0 -28 -29 -28 -29 4 -28 3 -29 80 80 c44 44 86 88 94 98 l13 17 -29 0 -30 0 -16 -18z"></path><path id="p3BU15vht" d="M3500 4553 l-95 -98 98 95 c53 52 97 96 97 97 0 8 -12 -4 -100 -94z"></path><path id="p11l0j6cG" d="M7422 4607 l-22 -23 0 -28 0 -27 30 21 c16 11 39 34 50 50 l21 30 -29 0 -29 0 -21 -23z"></path><path id="pYW0Bmakl" d="M1205 4480 c55 -55 102 -100 105 -100 2 0 -40 45 -95 100 -55 55 -102 100 -105 100 -2 0 40 -45 95 -100z"></path><path id="prgNgETMp" d="M7057 4242 l-159 -159 4 -29 3 -29 163 160 c90 88 173 172 184 188 l19 27 -28 0 -28 0 -158 -158z"></path><path id="pd6cmZEQe" d="M5320 4331 c11 -16 42 -48 68 -71 l47 -42 3 27 4 28 -43 43 -43 44 -29 0 -28 0 21 -29z"></path><path id="p1EDMxjX9K" d="M1520 4178 c74 -76 136 -138 137 -138 8 0 -7 15 -134 140 l-138 135 135 -137z"></path><path id="p1AtGRXd7F" d="M5561 4093 c7 -10 58 -63 113 -118 l101 -99 3 29 4 29 -35 33 -36 33 -15 0 -16 0 0 18 0 18 -38 37 -38 37 -28 0 -28 0 13 -17z"></path><path id="pgqb20BVD" d="M4240 4033 l-65 -68 68 65 c37 35 67 66 67 67 0 8 -10 -2 -70 -64z"></path><path id="p6oJPZxwk" d="M2045 3660 c165 -165 302 -300 305 -300 3 0 -130 135 -295 300 -165 165 -302 300 -305 300 -3 0 130 -135 295 -300z"></path><path id="p1FmRG9rSU" d="M4030 3823 l-95 -98 98 95 c53 52 97 96 97 97 0 8 -12 -4 -100 -94z"></path><path id="pBVF4aCcz" d="M6666 3861 l-38 -38 4 -27 3 -27 42 36 c23 20 52 49 63 66 l21 29 -28 0 -29 0 -38 -39z"></path><path id="p2shlP3Ry" d="M6502 3708 l-12 -12 0 -28 0 -28 24 15 c14 9 32 27 41 41 l15 24 -28 0 -28 0 -12 -12z"></path><path id="p18dVWF9Xr" d="M3805 3598 l-80 -83 83 80 c76 74 87 85 79 85 -1 0 -38 -37 -82 -82z"></path><path id="p1FGOgYyN8" d="M3564 3348 l-29 -33 33 29 c17 17 32 31 32 33 0 8 -8 1 -36 -29z"></path></g></g><g id="l4hwir0Z030yDA4j5071oDi" fill="rgb(9,43,78)" style="transform: none;"><g><path id="p1ClVqr0CB" d="M5185 7292 c-220 -219 -613 -607 -873 -862 l-473 -464 -15 -27 -14 -28 0 -36 0 -36 1216 -1214 c669 -668 1218 -1215 1221 -1215 16 0 851 811 1345 1307 l416 418 10 36 10 37 -6 28 c-2 16 -13 40 -23 54 -9 14 -131 138 -270 275 -139 138 -673 672 -1187 1188 l-935 937 -11 0 -12 0 -399 -398z m994 -1464 c316 -315 586 -586 600 -601 l24 -29 -11 -7 c-10 -6 -182 -172 -427 -413 l-101 -98 -593 594 c-326 326 -593 598 -592 602 2 11 509 524 518 524 4 0 266 -258 582 -572z"></path></g></g></svg>
