<?xml version="1.0" encoding="UTF-8"?>
<svg id="Layer_2" data-name="Layer 2" xmlns="http://www.w3.org/2000/svg" viewBox="0 0 550.28 155">
  <defs>
    <style>
      .cls-1 {
        fill: #1c1e21;
      }

      .cls-2 {
        fill: #002cc4;
      }
    </style>
  </defs>
  <g id="Layer_1-2" data-name="Layer 1">
    <g>
      <g>
        <path id="path4548" class="cls-2" d="m74.25,140.33c-2.96-2.78-2.53-7.57,1.1-12.27,2.69-3.48,13.93-14.88,22.04-22.36l3.28-3.02-5.22-11.19c-5.85-12.55-5.82-12.79,1.9-13.65l4.25-.47,4.75,7.18c2.61,3.95,5.13,7.18,5.58,7.18s5.14-3.76,10.41-8.35c9.15-7.98,9.72-8.33,12.82-7.91,1.87.26,3.53.1,3.92-.37.92-1.1,3.56.53,3.56,2.2,0,.69-1.32,2.43-2.92,3.87-6.57,5.9-20.58,19.86-20.58,20.5,0,.38,2.82,5.25,6.28,10.83l5.84,9.44c.26.42.21.96-.12,1.32l-1.39,1.07c-1.05,1.16-1.76,2.07-1.9,3.21.25.7-.8,1.04-1.75,1.48-2.41,1.12-4.19-.25-11.55-8.89-3.37-3.96-6.46-7.21-6.87-7.22-.91-.02-10.98,10.99-18.77,20.52-6.87,8.4-12.92,8.57-14.67,6.92h0Z"/>
        <path id="path4550" class="cls-2" d="m66.08,75c-.04-.06-.09-.12-.12-.17-15.34-22.9-26.46-26.93-26.06-27.18,5.83-3.75,16.77-.07,23.53,5.94.08.07.16.16.25.24,1.62,1.38,1.99,1.88,3.93,4.04.35,0,7.83-12.43,7.88-12.51,15.06-23.75,30.81-33.79,39.95-33.77,4.36,0,5.01,1.52,5.01,1.52-14.81,7.73-27.34,21.51-40.28,46.89-3.61,7.27-9.69,19-10.13,19.8-.66,1.2-.77-.59-3.95-4.8Z"/>
        <path class="cls-2" d="m15.95,76.23c4.1-1.01,7.25-2.44,9.48-4.3,2.22-1.86,3.74-4.08,4.57-6.66.83-2.58,1.24-5.45,1.24-8.6v-24.22c0-4.72.56-8.61,1.67-11.66,1.11-3.05,3.01-5.3,5.69-6.75,2.68-1.45,6.37-2.18,11.05-2.18V0c-5.93,0-10.92.65-14.96,1.94-4.04,1.29-7.26,3.27-9.69,5.93s-4.17,6.03-5.24,10.11c-1.07,4.08-1.6,8.9-1.6,14.47v19.38c0,6.62-1.34,11.34-4.03,14.17-2.68,2.83-7.4,4.24-14.14,4.24v14.53c6.74,0,11.45,1.41,14.14,4.24,2.68,2.83,4.03,7.55,4.03,14.17v19.37c0,5.57.53,10.39,1.6,14.47,1.07,4.08,2.81,7.45,5.24,10.11s5.65,4.64,9.69,5.93c4.04,1.29,9.02,1.94,14.96,1.94v-11.87c-4.68,0-8.37-.74-11.05-2.21-2.68-1.47-4.58-3.72-5.69-6.75s-1.67-6.9-1.67-11.63v-24.22c0-3.15-.41-6.01-1.24-8.6-.83-2.58-2.35-4.8-4.57-6.66-2.22-1.86-5.38-3.29-9.48-4.3-.52-.13-1.11-.22-1.67-.33v-1.87c.56-.11,1.15-.21,1.67-.33Z"/>
        <path class="cls-2" d="m165.11,76.23c-4.1-1.01-7.25-2.44-9.48-4.3-2.22-1.86-3.74-4.08-4.57-6.66-.83-2.58-1.24-5.45-1.24-8.6v-24.22c0-4.72-.56-8.61-1.67-11.66-1.11-3.05-3.01-5.3-5.69-6.75-2.68-1.45-6.37-2.18-11.05-2.18V0c5.93,0,10.92.65,14.96,1.94,4.04,1.29,7.26,3.27,9.69,5.93,2.42,2.66,4.17,6.03,5.24,10.11,1.07,4.08,1.6,8.9,1.6,14.47v19.38c0,6.62,1.34,11.34,4.03,14.17,2.68,2.83,7.4,4.24,14.14,4.24v7.02s0,.48,0,.48v7.02c-6.74,0-11.45,1.41-14.14,4.24-2.68,2.83-4.03,7.55-4.03,14.17v19.37c0,5.57-.53,10.39-1.6,14.47-1.07,4.08-2.81,7.45-5.24,10.11-2.42,2.66-5.65,4.64-9.69,5.93-4.04,1.29-9.02,1.94-14.96,1.94v-11.87c4.68,0,8.37-.74,11.05-2.21,2.68-1.47,4.58-3.72,5.69-6.75s1.67-6.9,1.67-11.63v-24.22c0-3.15.41-6.01,1.24-8.6.83-2.58,2.35-4.8,4.57-6.66,2.22-1.86,5.38-3.29,9.48-4.3.52-.13,1.11-.22,1.67-.33v-1.87c-.56-.11-1.15-.21-1.67-.33Z"/>
      </g>
      <g>
        <g>
          <path class="cls-1" d="m257.06,6.23h11.06v43.26c-.02,3.97-.86,7.38-2.52,10.23-1.66,2.85-3.98,5.05-6.96,6.58-2.97,1.53-6.43,2.3-10.38,2.3-3.61,0-6.85-.65-9.72-1.94-2.87-1.29-5.15-3.21-6.84-5.75-1.68-2.54-2.52-5.71-2.52-9.49h11.09c.02,1.66.39,3.1,1.1,4.3.71,1.2,1.7,2.12,2.96,2.76s2.71.96,4.36.96c1.78,0,3.29-.38,4.54-1.13,1.24-.75,2.19-1.87,2.84-3.35s.99-3.3,1.01-5.47V6.23Z"/>
          <path class="cls-1" d="m313.66,23.15c-.28-2.62-1.46-4.67-3.53-6.13-2.07-1.46-4.76-2.19-8.07-2.19-2.32,0-4.32.35-5.98,1.05-1.66.7-2.93,1.65-3.81,2.85-.88,1.2-1.33,2.57-1.35,4.12,0,1.28.3,2.39.89,3.34.59.94,1.4,1.74,2.42,2.39,1.02.65,2.15,1.2,3.39,1.64s2.49.81,3.76,1.11l5.77,1.44c2.32.54,4.56,1.27,6.72,2.19,2.15.92,4.09,2.08,5.8,3.48,1.71,1.4,3.07,3.1,4.07,5.08,1,1.98,1.5,4.31,1.5,6.97,0,3.6-.92,6.77-2.76,9.51-1.84,2.73-4.5,4.87-7.98,6.4-3.48,1.53-7.68,2.3-12.6,2.3s-8.94-.74-12.45-2.22c-3.52-1.48-6.26-3.64-8.23-6.49-1.97-2.84-3.04-6.31-3.2-10.39h10.97c.16,2.14.82,3.93,1.98,5.35,1.16,1.42,2.68,2.48,4.55,3.19s3.97,1.05,6.29,1.05,4.55-.37,6.38-1.1,3.27-1.75,4.31-3.06c1.04-1.31,1.57-2.85,1.59-4.61-.02-1.6-.49-2.93-1.41-3.98-.92-1.05-2.21-1.93-3.86-2.64s-3.58-1.35-5.78-1.91l-7-1.8c-5.07-1.3-9.07-3.28-12-5.93-2.93-2.65-4.4-6.18-4.4-10.59,0-3.62.99-6.8,2.96-9.52,1.97-2.72,4.66-4.84,8.07-6.35,3.4-1.51,7.26-2.27,11.57-2.27s8.2.76,11.49,2.27c3.29,1.51,5.88,3.61,7.77,6.28,1.88,2.67,2.85,5.74,2.91,9.21h-10.73Z"/>
          <path class="cls-1" d="m390.12,37c0,6.63-1.24,12.3-3.71,17.02-2.47,4.72-5.84,8.33-10.09,10.83-4.26,2.5-9.08,3.76-14.47,3.76s-10.21-1.26-14.47-3.77c-4.26-2.51-7.62-6.13-10.09-10.85-2.47-4.72-3.71-10.38-3.71-16.99s1.24-12.3,3.71-17.02c2.47-4.72,5.84-8.33,10.09-10.83,4.26-2.5,9.08-3.76,14.47-3.76s10.21,1.25,14.47,3.76c4.26,2.5,7.62,6.11,10.09,10.83,2.47,4.72,3.71,10.39,3.71,17.02Zm-11.21,0c0-4.67-.73-8.61-2.18-11.82-1.45-3.22-3.46-5.65-6.02-7.3-2.56-1.65-5.52-2.48-8.86-2.48s-6.3.83-8.86,2.48c-2.56,1.65-4.57,4.09-6.02,7.3-1.45,3.21-2.18,7.15-2.18,11.82s.73,8.61,2.18,11.82c1.45,3.21,3.46,5.65,6.02,7.3,2.56,1.65,5.52,2.48,8.86,2.48s6.3-.83,8.86-2.48c2.56-1.65,4.57-4.09,6.02-7.3,1.45-3.21,2.18-7.16,2.18-11.82Z"/>
          <path class="cls-1" d="m451.25,6.23v61.53h-9.91l-28.99-41.91h-.51v41.91h-11.15V6.23h9.97l28.96,41.94h.54V6.23h11.09Z"/>
        </g>
        <g>
          <path class="cls-1" d="m264.84,104.06c-.28-2.62-1.46-4.67-3.53-6.13-2.07-1.46-4.76-2.19-8.07-2.19-2.32,0-4.32.35-5.98,1.05-1.66.7-2.93,1.65-3.81,2.85-.88,1.2-1.33,2.57-1.35,4.12,0,1.28.3,2.39.89,3.34.59.94,1.4,1.74,2.42,2.39,1.02.65,2.15,1.2,3.39,1.64s2.49.81,3.76,1.11l5.77,1.44c2.32.54,4.56,1.27,6.72,2.19,2.15.92,4.09,2.08,5.8,3.48,1.71,1.4,3.07,3.1,4.07,5.08,1,1.98,1.5,4.31,1.5,6.97,0,3.6-.92,6.77-2.76,9.51-1.84,2.73-4.5,4.87-7.98,6.4-3.48,1.53-7.68,2.3-12.6,2.3s-8.94-.74-12.45-2.22c-3.52-1.48-6.26-3.64-8.23-6.49-1.97-2.84-3.04-6.31-3.2-10.39h10.97c.16,2.14.82,3.93,1.98,5.35,1.16,1.42,2.68,2.48,4.55,3.19s3.97,1.05,6.29,1.05,4.55-.37,6.38-1.1,3.27-1.75,4.31-3.06c1.04-1.31,1.57-2.85,1.59-4.61-.02-1.6-.49-2.93-1.41-3.98-.92-1.05-2.21-1.93-3.86-2.64s-3.58-1.35-5.78-1.91l-7-1.8c-5.07-1.3-9.07-3.28-12-5.93-2.93-2.65-4.4-6.18-4.4-10.59,0-3.62.99-6.8,2.96-9.52,1.97-2.72,4.66-4.84,8.07-6.35s7.26-2.27,11.57-2.27,8.2.76,11.49,2.27c3.29,1.51,5.88,3.61,7.77,6.28,1.88,2.67,2.85,5.74,2.91,9.21h-10.73Z"/>
          <path class="cls-1" d="m305.97,149.58c-4.61,0-8.56-1.01-11.85-3.03-3.3-2.02-5.83-4.82-7.6-8.4-1.77-3.57-2.66-7.7-2.66-12.36s.9-8.83,2.7-12.42c1.8-3.59,4.35-6.4,7.65-8.41,3.29-2.01,7.2-3.02,11.7-3.02,3.75,0,7.06.69,9.96,2.06,2.89,1.37,5.2,3.3,6.92,5.8s2.7,5.4,2.95,8.73h-10.39c-.42-2.22-1.42-4.08-2.99-5.57-1.57-1.49-3.67-2.24-6.29-2.24-2.22,0-4.18.6-5.86,1.79-1.68,1.19-2.99,2.9-3.92,5.12-.93,2.22-1.4,4.89-1.4,7.99s.46,5.84,1.38,8.1c.92,2.25,2.22,3.99,3.89,5.2,1.67,1.21,3.64,1.82,5.9,1.82,1.6,0,3.04-.31,4.31-.92,1.27-.61,2.34-1.5,3.2-2.66s1.45-2.57,1.77-4.24h10.39c-.26,3.27-1.22,6.15-2.88,8.67-1.66,2.51-3.93,4.48-6.79,5.89-2.87,1.41-6.23,2.12-10.1,2.12Z"/>
          <path class="cls-1" d="m345.56,121.64v27.04h-10.87v-61.53h10.63v23.22h.54c1.08-2.6,2.76-4.66,5.03-6.17,2.27-1.51,5.17-2.27,8.7-2.27,3.2,0,6,.67,8.38,2.01,2.38,1.34,4.23,3.3,5.54,5.89s1.97,5.74,1.97,9.46v29.38h-10.88v-27.7c0-3.1-.8-5.52-2.39-7.26-1.59-1.73-3.82-2.6-6.68-2.6-1.92,0-3.64.42-5.15,1.25-1.51.83-2.69,2.03-3.54,3.59-.85,1.56-1.28,3.45-1.28,5.68Z"/>
          <path class="cls-1" d="m406.97,149.58c-4.63,0-8.62-.97-11.97-2.9-3.36-1.93-5.93-4.68-7.74-8.23-1.8-3.56-2.7-7.75-2.7-12.57s.91-8.92,2.72-12.51c1.81-3.59,4.35-6.4,7.62-8.41,3.26-2.01,7.1-3.02,11.51-3.02,2.84,0,5.53.46,8.07,1.37,2.53.91,4.78,2.32,6.73,4.22,1.95,1.9,3.49,4.32,4.61,7.26,1.12,2.93,1.68,6.42,1.68,10.47v3.34h-37.82v-7.33h27.4c-.02-2.08-.47-3.94-1.35-5.57s-2.11-2.92-3.68-3.86c-1.57-.94-3.4-1.41-5.48-1.41-2.22,0-4.18.54-5.86,1.61-1.68,1.07-2.99,2.47-3.92,4.21-.93,1.73-1.41,3.63-1.43,5.69v6.4c0,2.68.49,4.98,1.47,6.9s2.35,3.37,4.12,4.39,3.83,1.52,6.19,1.52c1.58,0,3.01-.23,4.3-.68,1.28-.45,2.39-1.12,3.34-2,.94-.88,1.65-1.97,2.13-3.27l10.15,1.14c-.64,2.68-1.86,5.02-3.65,7.01-1.79,1.99-4.08,3.54-6.86,4.63-2.78,1.09-5.97,1.64-9.55,1.64Z"/>
          <path class="cls-1" d="m436.68,148.68v-46.15h10.39v7.84h.54c.96-2.64,2.55-4.71,4.78-6.2,2.22-1.49,4.88-2.24,7.96-2.24s5.76.76,7.92,2.27,3.67,3.57,4.55,6.17h.48c1.02-2.56,2.75-4.61,5.18-6.14,2.43-1.53,5.32-2.3,8.67-2.3,4.25,0,7.71,1.34,10.39,4.03,2.68,2.68,4.03,6.6,4.03,11.75v30.97h-10.91v-29.29c0-2.86-.76-4.96-2.28-6.29-1.52-1.33-3.38-2-5.59-2-2.62,0-4.67.82-6.14,2.45-1.47,1.63-2.21,3.75-2.21,6.35v28.78h-10.67v-29.74c0-2.38-.72-4.29-2.15-5.71-1.43-1.42-3.3-2.13-5.6-2.13-1.56,0-2.98.4-4.27,1.19-1.28.79-2.3,1.9-3.06,3.34-.76,1.43-1.14,3.1-1.14,5v28.06h-10.87Z"/>
          <path class="cls-1" d="m525.91,149.61c-2.92,0-5.55-.53-7.89-1.58-2.33-1.05-4.18-2.61-5.53-4.67-1.35-2.06-2.03-4.61-2.03-7.63,0-2.6.48-4.76,1.44-6.46.96-1.7,2.27-3.06,3.94-4.09,1.66-1.02,3.54-1.8,5.63-2.33,2.09-.53,4.26-.92,6.5-1.16,2.7-.28,4.9-.54,6.58-.77,1.68-.23,2.91-.59,3.68-1.08.77-.49,1.16-1.26,1.16-2.3v-.18c0-2.26-.67-4.02-2.01-5.26-1.34-1.24-3.28-1.86-5.8-1.86-2.66,0-4.77.58-6.32,1.74s-2.6,2.53-3.14,4.12l-10.15-1.44c.8-2.8,2.12-5.15,3.97-7.05,1.84-1.89,4.1-3.31,6.76-4.27,2.66-.95,5.61-1.43,8.83-1.43,2.22,0,4.44.26,6.64.78,2.2.52,4.22,1.38,6.04,2.57,1.82,1.19,3.29,2.81,4.4,4.85,1.11,2.04,1.67,4.6,1.67,7.66v30.88h-10.46v-6.34h-.36c-.66,1.28-1.59,2.48-2.78,3.59-1.19,1.11-2.68,2-4.48,2.67-1.79.67-3.89,1.01-6.29,1.01Zm2.82-7.99c2.18,0,4.08-.44,5.68-1.31,1.6-.87,2.84-2.03,3.71-3.47.87-1.44,1.31-3.01,1.31-4.72v-5.44c-.34.28-.92.54-1.73.78-.81.24-1.72.45-2.72.63s-1.99.34-2.97.48c-.98.14-1.83.26-2.55.36-1.62.22-3.07.58-4.36,1.08-1.28.5-2.29,1.2-3.04,2.09-.74.89-1.11,2.04-1.11,3.44,0,2,.73,3.52,2.19,4.54,1.46,1.02,3.32,1.53,5.59,1.53Z"/>
        </g>
      </g>
    </g>
  </g>
</svg>